<?xml version="1.0" encoding="UTF-8"?>
<svg width="700pt" height="700pt" version="1.1" viewBox="0 0 700 700" xmlns="http://www.w3.org/2000/svg" xmlns:xlink="http://www.w3.org/1999/xlink">
 <defs>
  <symbol id="v" overflow="visible">
   <path d="m18.609-1.1094c-0.96094 0.5-1.9609 0.875-3 1.125-1.043 0.25-2.125 0.375-3.25 0.375-3.375 0-6.0469-0.94141-8.0156-2.8281-1.9688-1.8828-2.9531-4.4414-2.9531-7.6719 0-3.2383 0.98438-5.8008 2.9531-7.6875 1.9688-1.8828 4.6406-2.8281 8.0156-2.8281 1.125 0 2.207 0.13281 3.25 0.39062 1.0391 0.25 2.0391 0.625 3 1.125v4.1875c-0.96875-0.65625-1.9219-1.1328-2.8594-1.4375-0.9375-0.3125-1.9297-0.46875-2.9688-0.46875-1.8672 0-3.3359 0.60156-4.4062 1.7969-1.0625 1.1875-1.5938 2.8281-1.5938 4.9219s0.53125 3.7422 1.5938 4.9375c1.0703 1.1875 2.5391 1.7812 4.4062 1.7812 1.0391 0 2.0312-0.14844 2.9688-0.45312 0.9375-0.3125 1.8906-0.79688 2.8594-1.4531z"/>
  </symbol>
  <symbol id="d" overflow="visible">
   <path d="m13.625-11.062c-0.42969-0.19531-0.85547-0.34375-1.2812-0.4375-0.41797-0.09375-0.83984-0.14062-1.2656-0.14062-1.25 0-2.2148 0.40234-2.8906 1.2031-0.66797 0.80469-1 1.9492-1 3.4375v7h-4.8594v-15.188h4.8594v2.4844c0.625-0.98828 1.3359-1.7109 2.1406-2.1719 0.8125-0.45703 1.7852-0.6875 2.9219-0.6875 0.16406 0 0.34375 0.011719 0.53125 0.03125 0.1875 0.011719 0.46094 0.039062 0.82812 0.078125z"/>
  </symbol>
  <symbol id="b" overflow="visible">
   <path d="m17.5-7.6406v1.3906h-11.359c0.125 1.1367 0.53516 1.9922 1.2344 2.5625 0.70703 0.57422 1.6953 0.85938 2.9688 0.85938 1.0195 0 2.0625-0.14844 3.125-0.45312 1.0703-0.3125 2.1758-0.77344 3.3125-1.3906v3.75c-1.1484 0.4375-2.2969 0.76562-3.4531 0.98438-1.1484 0.21875-2.293 0.32812-3.4375 0.32812-2.75 0-4.8906-0.69531-6.4219-2.0938-1.5234-1.3945-2.2812-3.3516-2.2812-5.875 0-2.4766 0.75-4.4258 2.25-5.8438 1.5-1.4258 3.5625-2.1406 6.1875-2.1406 2.3828 0 4.2891 0.71875 5.7188 2.1562 1.4375 1.4375 2.1562 3.3594 2.1562 5.7656zm-5-1.6094c0-0.92578-0.27344-1.6719-0.8125-2.2344-0.53125-0.5625-1.2305-0.84375-2.0938-0.84375-0.9375 0-1.7031 0.26562-2.2969 0.79688-0.58594 0.52344-0.94922 1.2812-1.0938 2.2812z"/>
  </symbol>
  <symbol id="l" overflow="visible">
   <path d="m9.1406-6.8438c-1.0117 0-1.7734 0.17188-2.2812 0.51562-0.51172 0.34375-0.76562 0.85547-0.76562 1.5312 0 0.61719 0.20312 1.1016 0.60938 1.4531 0.41406 0.34375 0.98828 0.51562 1.7188 0.51562 0.91406 0 1.6875-0.32812 2.3125-0.98438s0.9375-1.4766 0.9375-2.4688v-0.5625zm7.4219-1.8281v8.6719h-4.8906v-2.25c-0.65625 0.91797-1.3906 1.5898-2.2031 2.0156-0.8125 0.41406-1.8047 0.625-2.9688 0.625-1.5742 0-2.8555-0.45703-3.8438-1.375-0.98047-0.91406-1.4688-2.1094-1.4688-3.5781 0-1.7812 0.61328-3.082 1.8438-3.9062 1.2266-0.83203 3.1484-1.25 5.7656-1.25h2.875v-0.39062c0-0.76953-0.30859-1.332-0.92188-1.6875-0.60547-0.35156-1.5469-0.53125-2.8281-0.53125-1.043 0-2.0117 0.10547-2.9062 0.3125-0.89844 0.21094-1.7305 0.52344-2.5 0.9375v-3.7031c1.0391-0.25781 2.0859-0.45312 3.1406-0.57812 1.0508-0.13281 2.0977-0.20312 3.1406-0.20312 2.7383 0 4.7188 0.54297 5.9375 1.625 1.2188 1.0859 1.8281 2.8398 1.8281 5.2656z"/>
  </symbol>
  <symbol id="a" overflow="visible">
   <path d="m7.6406-19.5v4.3125h5v3.4688h-5v6.4375c0 0.71094 0.14062 1.1875 0.42188 1.4375s0.83203 0.375 1.6562 0.375h2.5v3.4688h-4.1562c-1.918 0-3.2773-0.39844-4.0781-1.2031-0.80469-0.80078-1.2031-2.1602-1.2031-4.0781v-6.4375h-2.4219v-3.4688h2.4219v-4.3125z"/>
  </symbol>
  <symbol id="f" overflow="visible">
   <path d="m12.672-12.969v-8.1406h4.875v21.109h-4.875v-2.2031c-0.66797 0.89844-1.4062 1.5547-2.2188 1.9688-0.80469 0.41406-1.7305 0.625-2.7812 0.625-1.875 0-3.418-0.73828-4.625-2.2188-1.1992-1.4883-1.7969-3.4062-1.7969-5.75s0.59766-4.2578 1.7969-5.75c1.207-1.4883 2.75-2.2344 4.625-2.2344 1.0391 0 1.9688 0.21484 2.7812 0.64062 0.8125 0.41797 1.5508 1.0703 2.2188 1.9531zm-3.2031 9.8281c1.0391 0 1.832-0.375 2.375-1.125 0.55078-0.75781 0.82812-1.8633 0.82812-3.3125 0-1.4453-0.27734-2.5508-0.82812-3.3125-0.54297-0.75781-1.3359-1.1406-2.375-1.1406-1.0312 0-1.8242 0.38281-2.375 1.1406-0.54297 0.76172-0.8125 1.8672-0.8125 3.3125 0 1.4492 0.26953 2.5547 0.8125 3.3125 0.55078 0.75 1.3438 1.125 2.375 1.125z"/>
  </symbol>
  <symbol id="k" overflow="visible">
   <path d="m10.422-3.1406c1.0391 0 1.832-0.375 2.375-1.125 0.55078-0.75781 0.82812-1.8633 0.82812-3.3125 0-1.4453-0.27734-2.5508-0.82812-3.3125-0.54297-0.75781-1.3359-1.1406-2.375-1.1406-1.043 0-1.8438 0.38672-2.4062 1.1562-0.55469 0.76172-0.82812 1.8594-0.82812 3.2969s0.27344 2.5391 0.82812 3.2969c0.5625 0.76172 1.3633 1.1406 2.4062 1.1406zm-3.2344-9.8281c0.66406-0.88281 1.4062-1.5352 2.2188-1.9531 0.82031-0.42578 1.7578-0.64062 2.8125-0.64062 1.875 0 3.4102 0.74609 4.6094 2.2344 1.207 1.4922 1.8125 3.4062 1.8125 5.75s-0.60547 4.2617-1.8125 5.75c-1.1992 1.4805-2.7344 2.2188-4.6094 2.2188-1.0547 0-1.9922-0.21094-2.8125-0.625-0.8125-0.42578-1.5547-1.082-2.2188-1.9688v2.2031h-4.8594v-21.109h4.8594z"/>
  </symbol>
  <symbol id="e" overflow="visible">
   <path d="m0.34375-15.188h4.8594l4.0781 10.297 3.4688-10.297h4.8594l-6.3906 16.625c-0.64844 1.6875-1.3984 2.8672-2.25 3.5469-0.85547 0.67578-1.9805 1.0156-3.375 1.0156h-2.8125v-3.1875h1.5156c0.82031 0 1.4219-0.13672 1.7969-0.40625 0.375-0.26172 0.66406-0.73047 0.875-1.4062l0.14062-0.42188z"/>
  </symbol>
  <symbol id="j" overflow="visible">
   <path d="m14.844-3.6875h-8.1719l-1.2812 3.6875h-5.25l7.5-20.25h6.2188l7.5 20.25h-5.25zm-6.875-3.7656h5.5625l-2.7812-8.0469z"/>
  </symbol>
  <symbol id="i" overflow="visible">
   <path d="m16.406-12.672c0.625-0.9375 1.3594-1.6484 2.2031-2.1406 0.84375-0.5 1.7695-0.75 2.7812-0.75 1.75 0 3.0781 0.54297 3.9844 1.625 0.91406 1.0742 1.375 2.6367 1.375 4.6875v9.25h-4.8906v-7.9219c0.007813-0.11328 0.015625-0.23438 0.015625-0.35938 0.007812-0.13281 0.015625-0.31641 0.015625-0.54688 0-1.0703-0.16406-1.8477-0.48438-2.3281-0.3125-0.48828-0.82031-0.73438-1.5156-0.73438-0.92969 0-1.6406 0.38281-2.1406 1.1406-0.5 0.75-0.76172 1.8516-0.78125 3.2969v7.4531h-4.875v-7.9219c0-1.6758-0.14844-2.7539-0.4375-3.2344-0.29297-0.48828-0.80859-0.73438-1.5469-0.73438-0.9375 0-1.6641 0.38281-2.1719 1.1406-0.5 0.76172-0.75 1.8555-0.75 3.2812v7.4688h-4.875v-15.188h4.875v2.2188c0.59375-0.85156 1.2734-1.5 2.0469-1.9375 0.78125-0.4375 1.6328-0.65625 2.5625-0.65625 1.0508 0 1.9766 0.25781 2.7812 0.76562 0.8125 0.5 1.4219 1.2109 1.8281 2.125z"/>
  </symbol>
  <symbol id="h" overflow="visible">
   <path d="m17.609-9.25v9.25h-4.8906v-7.0469c0-1.332-0.03125-2.25-0.09375-2.75-0.054688-0.5-0.15234-0.86328-0.29688-1.0938-0.1875-0.32031-0.44922-0.56641-0.78125-0.73438-0.32422-0.17578-0.69531-0.26562-1.1094-0.26562-1.0117 0-1.8086 0.39062-2.3906 1.1719-0.57422 0.78125-0.85938 1.8672-0.85938 3.25v7.4688h-4.8594v-21.109h4.8594v8.1406c0.72656-0.88281 1.5039-1.5352 2.3281-1.9531 0.82031-0.42578 1.7344-0.64062 2.7344-0.64062 1.75 0 3.0781 0.54297 3.9844 1.625 0.91406 1.0742 1.375 2.6367 1.375 4.6875z"/>
  </symbol>
  <symbol id="u" overflow="visible">
   <path d="m14.203-14.719v3.6875c-1.043-0.42578-2.0469-0.75-3.0156-0.96875s-1.8828-0.32812-2.7344-0.32812c-0.92969 0-1.6172 0.11719-2.0625 0.34375-0.44922 0.23047-0.67188 0.58594-0.67188 1.0625 0 0.38672 0.16406 0.68359 0.5 0.89062 0.34375 0.21094 0.95703 0.36719 1.8438 0.46875l0.84375 0.125c2.4883 0.3125 4.1602 0.83594 5.0156 1.5625 0.86328 0.71875 1.2969 1.8555 1.2969 3.4062 0 1.6172-0.60156 2.8281-1.7969 3.6406-1.1875 0.8125-2.9688 1.2188-5.3438 1.2188-1 0-2.0391-0.078125-3.1094-0.23438-1.0742-0.15625-2.1719-0.39453-3.2969-0.71875v-3.6875c0.96875 0.46875 1.957 0.82422 2.9688 1.0625 1.0195 0.24219 2.0547 0.35938 3.1094 0.35938 0.94531 0 1.6602-0.12891 2.1406-0.39062 0.47656-0.26953 0.71875-0.66016 0.71875-1.1719 0-0.4375-0.16797-0.75781-0.5-0.96875-0.32422-0.21875-0.98047-0.38281-1.9688-0.5l-0.85938-0.10938c-2.1562-0.26953-3.6719-0.76953-4.5469-1.5-0.86719-0.73828-1.2969-1.8516-1.2969-3.3438 0-1.6016 0.55078-2.7969 1.6562-3.5781 1.1016-0.78125 2.7969-1.1719 5.0781-1.1719 0.89453 0 1.832 0.070312 2.8125 0.20312 0.98828 0.13672 2.0625 0.35156 3.2188 0.64062z"/>
  </symbol>
  <symbol id="t" overflow="visible">
   <path d="m16.641-19.609v4.2812c-1.1172-0.5-2.2031-0.875-3.2656-1.125-1.0547-0.25-2.0469-0.375-2.9844-0.375-1.25 0-2.1719 0.17188-2.7656 0.51562s-0.89062 0.875-0.89062 1.5938c0 0.54297 0.19531 0.96484 0.59375 1.2656 0.40625 0.30469 1.1328 0.5625 2.1875 0.78125l2.2344 0.45312c2.25 0.44922 3.8477 1.1367 4.7969 2.0625 0.94531 0.91797 1.4219 2.2305 1.4219 3.9375 0 2.2305-0.66406 3.8906-1.9844 4.9844-1.3242 1.0859-3.3438 1.625-6.0625 1.625-1.293 0-2.5859-0.125-3.875-0.375-1.293-0.23828-2.5859-0.59766-3.875-1.0781v-4.4062c1.2891 0.6875 2.5391 1.2109 3.75 1.5625 1.207 0.34375 2.375 0.51562 3.5 0.51562 1.1328 0 2.0039-0.1875 2.6094-0.5625 0.60156-0.38281 0.90625-0.92969 0.90625-1.6406 0-0.625-0.21094-1.1094-0.625-1.4531-0.40625-0.34375-1.2266-0.64844-2.4531-0.92188l-2.0156-0.45312c-2.0312-0.4375-3.5156-1.1289-4.4531-2.0781-0.92969-0.94531-1.3906-2.2266-1.3906-3.8438 0-2.0078 0.64844-3.5547 1.9531-4.6406 1.3008-1.0938 3.1719-1.6406 5.6094-1.6406 1.1133 0 2.2578 0.089844 3.4375 0.26562 1.1758 0.16797 2.3906 0.41797 3.6406 0.75z"/>
  </symbol>
  <symbol id="g" overflow="visible">
   <path d="m2.1719-5.9219v-9.2656h4.875v1.5156c0 0.82422-0.007813 1.8594-0.015625 3.1094v2.4844c0 1.2188 0.03125 2.1016 0.09375 2.6406 0.0625 0.53125 0.17188 0.92188 0.32812 1.1719 0.19531 0.3125 0.45312 0.55859 0.76562 0.73438 0.32031 0.16797 0.69141 0.25 1.1094 0.25 1.0195 0 1.8164-0.38281 2.3906-1.1562 0.58203-0.78125 0.875-1.8633 0.875-3.25v-7.5h4.8438v15.188h-4.8438v-2.2031c-0.74219 0.88672-1.5234 1.543-2.3438 1.9688-0.8125 0.41406-1.7109 0.625-2.6875 0.625-1.7617 0-3.1016-0.53516-4.0156-1.6094-0.91797-1.0703-1.375-2.6406-1.375-4.7031z"/>
  </symbol>
  <symbol id="s" overflow="visible">
   <path d="m2.3281-15.188h4.8594v15.188h-4.8594zm0-5.9219h4.8594v3.9688h-4.8594z"/>
  </symbol>
  <symbol id="c" overflow="visible">
   <path d="m9.5625-12.094c-1.0742 0-1.8984 0.39062-2.4688 1.1719-0.5625 0.77344-0.84375 1.8867-0.84375 3.3438 0 1.4492 0.28125 2.5625 0.84375 3.3438 0.57031 0.77344 1.3945 1.1562 2.4688 1.1562 1.0625 0 1.8672-0.38281 2.4219-1.1562 0.5625-0.78125 0.84375-1.8945 0.84375-3.3438 0-1.457-0.28125-2.5703-0.84375-3.3438-0.55469-0.78125-1.3594-1.1719-2.4219-1.1719zm0-3.4688c2.6133 0 4.6562 0.71094 6.125 2.125 1.4688 1.4062 2.2031 3.3594 2.2031 5.8594 0 2.4922-0.73438 4.4453-2.2031 5.8594-1.4688 1.4062-3.5117 2.1094-6.125 2.1094-2.625 0-4.6797-0.70312-6.1562-2.1094-1.4805-1.4141-2.2188-3.3672-2.2188-5.8594 0-2.5 0.73828-4.4531 2.2188-5.8594 1.4766-1.4141 3.5312-2.125 6.1562-2.125z"/>
  </symbol>
  <symbol id="r" overflow="visible">
   <path d="m12.328-21.109v3.1875h-2.6875c-0.6875 0-1.168 0.125-1.4375 0.375-0.27344 0.25-0.40625 0.68359-0.40625 1.2969v1.0625h4.1562v3.4688h-4.1562v11.719h-4.8594v-11.719h-2.4062v-3.4688h2.4062v-1.0625c0-1.6562 0.45703-2.8789 1.375-3.6719 0.92578-0.78906 2.3594-1.1875 4.2969-1.1875z"/>
  </symbol>
  <symbol id="q" overflow="visible">
   <path d="m2.5469-20.25h5.8438l7.3594 13.891v-13.891h4.9531v20.25h-5.8281l-7.375-13.891v13.891h-4.9531z"/>
  </symbol>
  <symbol id="p" overflow="visible">
   <path d="m17.609-9.25v9.25h-4.8906v-7.0781c0-1.3125-0.03125-2.2188-0.09375-2.7188-0.054688-0.5-0.15234-0.86328-0.29688-1.0938-0.1875-0.32031-0.44922-0.56641-0.78125-0.73438-0.32422-0.17578-0.69531-0.26562-1.1094-0.26562-1.0117 0-1.8086 0.39062-2.3906 1.1719-0.57422 0.78125-0.85938 1.8672-0.85938 3.25v7.4688h-4.8594v-15.188h4.8594v2.2188c0.72656-0.88281 1.5039-1.5352 2.3281-1.9531 0.82031-0.42578 1.7344-0.64062 2.7344-0.64062 1.75 0 3.0781 0.54297 3.9844 1.625 0.91406 1.0742 1.375 2.6367 1.375 4.6875z"/>
  </symbol>
  <symbol id="o" overflow="visible">
   <path d="m2.5469-20.25h8.6719c2.5703 0 4.5469 0.57422 5.9219 1.7188 1.3828 1.1367 2.0781 2.7656 2.0781 4.8906s-0.69531 3.7617-2.0781 4.9062c-1.375 1.1367-3.3516 1.7031-5.9219 1.7031h-3.4531v7.0312h-5.2188zm5.2188 3.7812v5.6562h2.8906c1.0195 0 1.8047-0.24219 2.3594-0.73438 0.55078-0.5 0.82812-1.1953 0.82812-2.0938 0-0.90625-0.27734-1.6016-0.82812-2.0938-0.55469-0.48828-1.3398-0.73438-2.3594-0.73438z"/>
  </symbol>
  <symbol id="n" overflow="visible">
   <path d="m2.3281-15.188h4.8594v14.922c0 2.0312-0.49219 3.582-1.4688 4.6562-0.96875 1.0703-2.3828 1.6094-4.2344 1.6094h-2.4062v-3.1875h0.84375c0.91406 0 1.5469-0.21094 1.8906-0.625 0.34375-0.41797 0.51562-1.2344 0.51562-2.4531zm0-5.9219h4.8594v3.9688h-4.8594z"/>
  </symbol>
  <symbol id="m" overflow="visible">
   <path d="m14.609-14.719v3.9688c-0.65625-0.45703-1.3203-0.79688-1.9844-1.0156-0.66797-0.21875-1.3594-0.32812-2.0781-0.32812-1.3555 0-2.4141 0.39844-3.1719 1.1875-0.75 0.79297-1.125 1.9023-1.125 3.3281 0 1.418 0.375 2.5234 1.125 3.3125 0.75781 0.79297 1.8164 1.1875 3.1719 1.1875 0.75781 0 1.4766-0.10938 2.1562-0.32812 0.6875-0.22656 1.3203-0.56641 1.9062-1.0156v3.9688c-0.76172 0.28125-1.5312 0.48828-2.3125 0.625-0.78125 0.14453-1.5703 0.21875-2.3594 0.21875-2.7422 0-4.8867-0.70312-6.4375-2.1094-1.543-1.4062-2.3125-3.3594-2.3125-5.8594 0-2.5078 0.76953-4.4688 2.3125-5.875 1.5508-1.4062 3.6953-2.1094 6.4375-2.1094 0.80078 0 1.5859 0.074219 2.3594 0.21875 0.76953 0.13672 1.5391 0.34375 2.3125 0.625z"/>
  </symbol>
 </defs>
 <g>
  <path d="m83.184 213.02c-5.9492 0-10.777 4.8281-10.777 10.777s4.8281 10.777 10.777 10.777c5.9492 0 10.777-4.8281 10.777-10.777s-4.8242-10.777-10.777-10.777z"/>
  <path d="m83.188 189.24c-19.062 0-34.566 15.508-34.566 34.566 0 19.062 15.508 34.566 34.566 34.566 19.062 0 34.566-15.508 34.566-34.566 0-19.062-15.512-34.566-34.566-34.566zm0 58.02c-12.934 0-23.457-10.523-23.457-23.457 0-12.934 10.523-23.457 23.457-23.457s23.457 10.523 23.457 23.457c0 12.934-10.527 23.457-23.457 23.457z"/>
  <path d="m698.02 188.38c0.039062-0.13281 0.050781-0.26172 0.078124-0.39844 3.3555-19.672 2.2656-41.059-3.3047-64.031-0.62109-2.5742-2.8828-4.4375-5.6172-4.2461-50.609 1.9961-95.465 26.375-133.38 72.402-4.0547 1.1953-15.477 4.3438-23.125 4.3516-1.2617-0.10547-6.1719-1.2266-13.047-2.8945 24.523-12.797 28.27-33.211 31.824-53.09 3.1055-17.34 6.3125-35.273 22.824-51.164 1.8945-1.8281 2.25-4.7344 0.85547-6.957-1.3984-2.2266-4.168-3.168-6.6328-2.2539-0.62109 0.23438-62.785 22.906-114.8 21.285-13.605-0.44531-35.074-3.6094-59.926-7.2852-64.953-9.5898-153.93-22.727-197.08-0.89062-41.707 21.105-53.68 34.934-56.453 42.758-95.047 24.195-140.24 86.824-140.24 99.742 0 6.8789 4.0742 13.062 7.9297 17.367-3.1328 2.5352-5.6562 6.4883-5.7617 12.383-0.027344 1.6836-0.089844 5.1836 10.129 15.578 17.312 17.617 66.035 55.336 130.42 75.375 6.5742 53.984 48.941 130.68 77.238 150.3 5.207 3.6055 10.035 5.4297 14.418 5.4297 1.3438 0 2.6484-0.17188 3.9102-0.51562 3.4102-0.92969 6.0781-3.1562 7.7109-6.4492 2.4961-5.0352 2.1797-12.422 0.85937-19.613 14.906 13.617 29.145 23.117 40.375 25.594 2.0742 0.46094 3.957 0.66016 5.668 0.66016 6.3242 0 10.301-2.7383 12.652-5.3633 11.527-12.828 5.957-34.723-0.75-50.832-2.2656-5.4375-1.1016-11.855 3.0352-16.738 4.2266-4.9961 8.6797-13.656 5.8281-26.547-3.7617-17.035-35.402-34.77-57.02-45.074 25.25-3.5156 51.797-10.777 78.227-19.551 5.6289 10.723 21.34 37.43 41.551 44.93 14.711 5.457 29.059 2.5625 44.254-0.51172 10.523-2.1211 21.43-4.2734 32.855-3.6953 13.102 0.72266 18.91 3.3008 25.641 6.2852 7.1133 3.1562 15.172 6.7344 31.957 8.0391 3.2734 0.25391 6.9062 0.38281 10.773 0.38281 23.402 0 55.445-4.8906 68.227-17.523 5.0938-5.0352 5.8906-10.141 5.6602-13.539-0.70703-10.617-14.984-17.211-36.586-27.191-24.773-11.438-58.047-26.828-72.441-51.734 20.184-5.8438 35.684-8.8164 46.223-8.8164 10.027 0 19.012 3.1602 22.285 4.4609 31.789 50.637 75.559 77.082 133.78 80.742 0.11719 0.003906 0.23438 0.011719 0.35547 0.011719 2.7383 0 5.0938-2.0039 5.4961-4.75 7.7266-52.957 1.1094-93.277-20.223-123.05 12.168-16.004 19.949-33.84 23.352-53.367zm-33.086 47.734h-84.598c-0.1875-2.7148-0.53906-5.4336-1.0664-8.1484 38.914-16.75 73.848-27.934 106.37-34.078-3.7383 15.266-10.629 29.293-20.707 42.227zm21.496 102.95c-38.426-15.047-76.363-37.945-112.95-68.246 1.1602-2.4844 2.1797-4.9727 3.0508-7.4609 33.051 21.723 69.715 35.414 109.2 40.715 1.2227 10.801 1.4727 22.441 0.70312 34.992zm1.4375-156.89c-34.164 6.0391-70.781 17.523-111.59 34.992-0.78906-2.1719-1.707-4.3398-2.7109-6.5078 40.035-30.137 76.605-50.68 114.15-64.16 1.625 12.57 1.668 24.441 0.15234 35.676zm-2.8398-51.113c0.31641 1.4453 0.56641 2.8672 0.84375 4.293-38.875 13.699-76.555 34.664-117.66 65.449-0.71484-1.1602-1.4883-2.3281-2.2734-3.4883 34.312-40.871 74.324-63.172 119.09-66.254zm-483.32-27.934c39.992-20.238 126.95-7.4062 190.43 1.9648 25.191 3.7188 46.945 6.9297 61.188 7.3906 37.141 1.2891 78.012-9.0781 100.92-16.008-8.7266 14.094-11.344 28.719-13.727 42.035-4.0898 22.844-7.3906 40.934-39.328 50.504-0.98437-0.24609-1.9375-0.48438-2.9375-0.72656-6.5156-1.6211-13.773-3.4219-21.523-5.3398l44.375-60.441c1.8164-2.4727 1.2852-5.9492-1.1875-7.7617-2.4766-1.8164-5.957-1.2773-7.7656 1.1875l-47.098 64.152c-7.3242-1.7891-15.016-3.6562-23.062-5.5781l25.836-42.984c1.582-2.6289 0.72656-6.0391-1.8984-7.6211-2.6328-1.5742-6.0391-0.73438-7.6211 1.9062l-27.652 46.012c-6.6016-1.5547-13.391-3.1328-20.312-4.7227l19.875-35.73c1.4961-2.6797 0.52734-6.0664-2.1562-7.5547s-6.0625-0.52734-7.5547 2.1562l-21.449 38.57c-7.9688-1.793-16.078-3.5898-24.301-5.3633l17.797-34.008c1.4219-2.7148 0.37109-6.0781-2.3516-7.5-2.7148-1.4375-6.0742-0.36719-7.5 2.3438l-19.234 36.758c-8.6445-1.8242-17.367-3.6094-26.125-5.3438l14.766-31.324c1.3125-2.7773 0.11719-6.0898-2.6562-7.3945-2.7734-1.3164-6.082-0.11719-7.3945 2.6562l-15.969 33.875c-8.5547-1.6406-17.102-3.2188-25.59-4.707l14.078-29.395c1.3281-2.7656 0.15625-6.082-2.6094-7.4102-2.7656-1.3125-6.082-0.15625-7.4102 2.6172l-15.441 32.234c-6.3828-1.0664-12.699-2.0625-18.961-3.0117l12.008-27.883c1.2109-2.8242-0.089844-6.0898-2.9062-7.3008-2.8242-1.207-6.0898 0.09375-7.3008 2.9062l-13.184 30.625c-7.3008-1.0234-14.473-1.9453-21.48-2.75l10.801-23.34c1.2891-2.7852 0.078125-6.0898-2.7109-7.3711-2.7773-1.2891-6.0898-0.078125-7.3789 2.707l-12.383 26.762c-6.9766-0.6875-13.773-1.2539-20.305-1.6602l11.418-18.039c1.6406-2.5938 0.87109-6.0273-1.7227-7.668-2.5938-1.6562-6.0273-0.87109-7.6602 1.7227l-14.805 23.395c-13.969-0.44922-26.52-0.066406-37.191 1.3242 5.9648-5.8906 18.906-15.98 46.355-29.867zm34.312 397.12c-0.27734 0.55469-0.46094 0.60156-0.67188 0.66016-1.957 0.52344-5.2656-0.67188-9.0781-3.3242-25.164-17.445-63.914-87.492-71.871-137.8 2.6211 0.70703 5.2656 1.3828 7.9375 2.0273 11.324 34.18 39.457 76.566 68.246 107.56 3.8398 9.9219 7.9883 25.727 5.4375 30.871zm66.781-85.496c1.5 6.7852 0.33203 12.488-3.4609 16.969-6.8398 8.0781-8.6875 18.879-4.8164 28.184 4.4844 10.773 10.801 30.184 2.7461 39.141-0.55078 0.60938-2.2344 2.4727-7.6562 1.2773-28.797-6.3672-92.91-78.938-114.52-135.75 3.9883 0.77344 8.0078 1.4844 12.078 2.0898 12.328 24.488 30.086 45.23 52.938 61.602 0.97656 0.70703 2.1094 1.043 3.2344 1.043 1.7344 0 3.4375-0.8125 4.5234-2.3242 1.7891-2.4883 1.2109-5.9609-1.2773-7.75-19.59-14.039-34.73-30.777-46.043-50.953 4.1016 0.39844 8.2344 0.71094 12.406 0.92188 7.707 17.797 21.719 31.125 41.863 39.535 0.69922 0.29297 1.4219 0.42969 2.1406 0.42969 2.1797 0 4.2383-1.2852 5.1289-3.418 1.1836-2.8281-0.15625-6.082-2.9883-7.2656-15.738-6.5742-26.789-16.102-33.672-28.918 0.17969 0 0.35156 0.011719 0.52734 0.011719 2.6211 0 5.2852-0.10938 7.9453-0.21484 25.402 10.254 65.781 31.262 68.898 45.391zm251.73-59.754c11.906 5.4961 29.891 13.801 30.164 17.84 0.039063 0.58984 0.15625 2.3789-2.3906 4.8984-10.43 10.305-45.734 15.855-70.32 13.961-14.883-1.1602-21.414-4.0508-28.316-7.1172-7.0781-3.1328-14.402-6.3828-29.527-7.2188-12.883-0.73828-24.457 1.6289-35.668 3.8945-14.191 2.8594-26.441 5.3398-38.191 0.98438-15.691-5.8242-29.113-27.77-34.734-38.137 5.5938-1.9375 11.172-3.918 16.723-5.9375 11.168 16.367 23.457 27.496 37.492 33.809 0.73828 0.33203 1.5117 0.48828 2.2773 0.48828 2.1172 0 4.1445-1.2227 5.0742-3.2773 1.2617-2.8008 0.003906-6.0898-2.7891-7.3438-11.66-5.2383-21.723-14.102-31.324-27.625 5.9961-2.2383 11.934-4.4961 17.824-6.7461 10.402 14.812 22.52 27.02 36.105 36.25 0.95703 0.64844 2.043 0.96094 3.1172 0.96094 1.7773 0 3.5273-0.85156 4.6016-2.4336 1.7266-2.5352 1.0625-5.9883-1.4727-7.7188-11.762-7.9844-22.285-18.562-31.523-31.211 1.1836-0.45703 2.3828-0.91797 3.5625-1.3672 6.0898-2.3438 11.977-4.6055 17.773-6.8125 10.938 18.035 24.23 32.781 39.617 43.789 0.97656 0.69922 2.1094 1.0391 3.2266 1.0391 1.7344 0 3.4375-0.8125 4.5234-2.3242 1.7852-2.4961 1.2109-5.9688-1.2852-7.7578-13.656-9.7656-25.562-22.785-35.5-38.715 3.2539-1.2148 6.582-2.4844 9.75-3.6328 2.7461-0.99609 5.293-1.8711 7.9375-2.8047 12.699 18.43 29.035 36.531 48.691 53.848 1.0547 0.92969 2.3594 1.3828 3.668 1.3828 1.5391 0 3.0742-0.63281 4.1719-1.8828 2.0273-2.3047 1.8047-5.8164-0.5-7.8438-18.074-15.91-33.211-32.461-45.141-49.273 4.7773-1.6094 9.3672-3.1094 13.766-4.4883 15.492 29.316 51.754 46.117 78.617 58.523zm-115.01-57.902c-12.16 4.4219-24.863 9.3047-38.312 14.477-57.113 21.98-121.85 46.887-175.27 46.887-114.42 0-206.84-81.844-212.63-93.434 0.39062-3.7734 3.668-4.5938 5.043-4.7656 2.2852-0.21484 4.1875-1.8164 4.8125-4.0273 0.62109-2.207-0.17969-4.5742-2.0117-5.9492-2.6055-1.957-10.047-8.8477-10.055-14.414 1.1172-8.8008 42.746-67.793 135.32-90.082 68.555-16.512 272.39 34.203 349.14 53.293 27.68 6.8789 34.406 8.4883 36.93 8.4883 8.0508 0 18.59-2.5938 24.223-4.1602 16.824 24.918 16.895 49.254 0.21094 74.164-5.0742-1.7891-14.016-4.3242-23.957-4.3242-18.695 0-49.27 7.8008-93.449 23.848zm126.13-12.676c0.83203-1.2266 1.6602-2.4492 2.4219-3.6797 37.957 31.172 77.391 54.664 117.38 69.887-0.25391 2.4609-0.52734 4.9336-0.85547 7.457-51.258-4.5703-90.227-28.762-118.95-73.664zm118.36 8.168c-37.828-5.5547-72.93-19.145-104.49-40.539 0.28516-1.6055 0.49609-3.2109 0.65625-4.8164h84.672c9.3867 12.773 15.781 27.805 19.16 45.355z"/>
  <path d="m187.15 234.03c-3.8945-38.953-37.684-60.047-39.125-60.926-2.6094-1.6016-6.0273-0.78516-7.6289 1.832-1.6055 2.6094-0.78906 6.0273 1.8242 7.6406 0.30469 0.18359 30.539 19.195 33.875 52.559 3.3789 33.801-25.094 67.738-25.383 68.074-1.9844 2.3398-1.707 5.8438 0.62891 7.8281 1.043 0.89453 2.3242 1.3281 3.6016 1.3281 1.5742 0 3.1289-0.66016 4.2266-1.957 1.2969-1.5117 31.828-37.809 27.98-76.379z"/>
  <path d="m280.74 287.48c-8.0547-1.0898-79.25-10.207-99.25 7.2656-3.9297 3.4297-6.0039 7.8164-6.0039 12.691 0 9.5938 3.9336 17.773 11.383 23.672 9.5664 7.5781 23.613 10.551 36.902 10.551 6.793 0 13.391-0.77734 19.086-2.1172 24.199-5.6992 41.465-42.664 42.184-44.234 0.73828-1.6016 0.67188-3.4492-0.17969-4.9961-0.85156-1.5391-2.3789-2.5938-4.1211-2.832zm-40.438 41.246c-14.402 3.3984-35.605 2.3281-46.543-6.3281-1.0547-0.83984-1.9453-1.75-2.7656-2.6875l40.098-4.2344c3.0508-0.32031 5.2617-3.0547 4.9453-6.1055-0.32031-3.0508-3.0391-5.3164-6.1133-4.9453l-43.18 4.5547c-0.035156-0.52734-0.15625-1.0039-0.15625-1.5508 0-1.1172 0.25-2.6211 2.1992-4.3164 6.6406-5.8008 24.375-7.8047 43.754-7.8047 13.18 0 27.113 0.92969 38.84 2.2148-6.3906 11.312-18.355 28.207-31.078 31.203z"/>
  <use y="595.484375" xlink:href="#v"/>
  <use x="20.386719" y="595.484375" xlink:href="#d"/>
  <use x="34.085938" y="595.484375" xlink:href="#b"/>
  <use x="52.925781" y="595.484375" xlink:href="#l"/>
  <use x="71.671875" y="595.484375" xlink:href="#a"/>
  <use x="84.953125" y="595.484375" xlink:href="#b"/>
  <use x="103.792969" y="595.484375" xlink:href="#f"/>
  <use x="133.347656" y="595.484375" xlink:href="#k"/>
  <use x="153.234375" y="595.484375" xlink:href="#e"/>
  <use x="181.011719" y="595.484375" xlink:href="#j"/>
  <use x="202.511719" y="595.484375" xlink:href="#i"/>
  <use x="231.457031" y="595.484375" xlink:href="#b"/>
  <use x="250.296875" y="595.484375" xlink:href="#a"/>
  <use x="263.574219" y="595.484375" xlink:href="#h"/>
  <use x="283.351562" y="595.484375" xlink:href="#e"/>
  <use x="301.460938" y="595.484375" xlink:href="#u"/>
  <use x="317.996094" y="595.484375" xlink:href="#a"/>
  <use x="340.945312" y="595.484375" xlink:href="#t"/>
  <use x="360.953125" y="595.484375" xlink:href="#a"/>
  <use x="374.230469" y="595.484375" xlink:href="#g"/>
  <use x="394.007813" y="595.484375" xlink:href="#f"/>
  <use x="413.890625" y="595.484375" xlink:href="#s"/>
  <use x="423.414062" y="595.484375" xlink:href="#c"/>
  <use y="623.265625" xlink:href="#r"/>
  <use x="12.085938" y="623.265625" xlink:href="#d"/>
  <use x="25.785156" y="623.265625" xlink:href="#c"/>
  <use x="44.871094" y="623.265625" xlink:href="#i"/>
  <use x="83.488281" y="623.265625" xlink:href="#a"/>
  <use x="96.765625" y="623.265625" xlink:href="#h"/>
  <use x="116.542969" y="623.265625" xlink:href="#b"/>
  <use x="145.054688" y="623.265625" xlink:href="#q"/>
  <use x="168.300781" y="623.265625" xlink:href="#c"/>
  <use x="187.386719" y="623.265625" xlink:href="#g"/>
  <use x="207.164062" y="623.265625" xlink:href="#p"/>
  <use x="236.609375" y="623.265625" xlink:href="#o"/>
  <use x="256.96875" y="623.265625" xlink:href="#d"/>
  <use x="270.667969" y="623.265625" xlink:href="#c"/>
  <use x="289.753906" y="623.265625" xlink:href="#n"/>
  <use x="299.277344" y="623.265625" xlink:href="#b"/>
  <use x="318.117188" y="623.265625" xlink:href="#m"/>
  <use x="334.582031" y="623.265625" xlink:href="#a"/>
 </g>
</svg>
