<?xml version="1.0" encoding="UTF-8"?>
<svg width="700pt" height="700pt" version="1.1" viewBox="0 0 700 700" xmlns="http://www.w3.org/2000/svg">
 <path d="m193.5 555.33h313c18.086-0.019531 35.355-7.5352 47.695-20.758 12.34-13.227 18.645-30.973 17.414-49.016l-21.875-314.57c-0.74609-10.199-5.3086-19.742-12.785-26.719-7.4766-6.9766-17.309-10.875-27.535-10.914h-66.473v-35.746c0-33.207-17.715-63.887-46.473-80.492-28.754-16.602-64.184-16.602-92.938 0-28.758 16.605-46.473 47.285-46.473 80.492v35.746h-66.473c-10.227 0.039062-20.059 3.9375-27.535 10.914-7.4766 6.9766-12.039 16.52-12.785 26.719l-21.875 314.57c-1.2305 18.043 5.0742 35.789 17.414 49.016 12.34 13.223 29.609 20.738 47.695 20.758zm91.559-457.72c0-23.203 12.379-44.641 32.473-56.242 20.09-11.602 44.848-11.602 64.938 0 20.094 11.602 32.473 33.039 32.473 56.242v35.746h-129.88zm-106.9 75.32c0.48438-6.5117 5.9023-11.555 12.43-11.574h66.473v43.195c0 7.7305 6.2695 14 14 14 7.7305 0 14-6.2695 14-14v-43.195h129.88v43.195c0 7.7305 6.2695 14 14 14 7.7305 0 14-6.2695 14-14v-43.195h66.473c6.5273 0.019531 11.945 5.0625 12.43 11.574l19.039 274.4h-381.77zm-20.984 302.45h385.66l0.83984 12.113v0.003906c0.69141 10.297-2.9141 20.422-9.9531 27.969-7.043 7.5469-16.891 11.84-27.215 11.863h-313c-10.324-0.023437-20.172-4.3164-27.215-11.863-7.0391-7.5469-10.645-17.672-9.9531-27.969z"/>
</svg>
